<svg width="38" height="37" viewBox="0 0 38 37" fill="none" xmlns="http://www.w3.org/2000/svg">
<circle cx="18.6338" cy="18.5" r="18.5" fill="#18C684"/>
<path d="M23.9418 22.022C23.9418 23.306 23.4978 24.332 22.6098 25.1C21.7218 25.856 20.4918 26.24 18.9198 26.252V27.8H18.1638V26.234C16.7598 26.126 15.5418 25.694 14.5098 24.938C13.4898 24.17 12.9078 23.036 12.7638 21.536H15.4458C15.6258 22.304 15.9558 22.886 16.4358 23.282C16.9158 23.678 17.4918 23.918 18.1638 24.002V20.042L18.0198 20.006C16.9878 19.778 16.1538 19.544 15.5178 19.304C14.8938 19.064 14.3538 18.686 13.8978 18.17C13.4418 17.654 13.2138 16.946 13.2138 16.046C13.2138 15.182 13.4238 14.45 13.8438 13.85C14.2638 13.238 14.8398 12.782 15.5718 12.482C16.3038 12.17 17.1378 12.014 18.0738 12.014H18.1638V10.466H18.9198V12.068C20.1438 12.2 21.1818 12.632 22.0338 13.364C22.8858 14.096 23.4018 15.092 23.5818 16.352H20.9358C20.8038 15.8 20.5638 15.356 20.2158 15.02C19.8678 14.684 19.4358 14.456 18.9198 14.336V17.792H18.9378C19.9818 18.02 20.8338 18.26 21.4938 18.512C22.1658 18.764 22.7418 19.172 23.2218 19.736C23.7018 20.3 23.9418 21.062 23.9418 22.022ZM15.7878 15.83C15.7878 16.322 15.9858 16.694 16.3818 16.946C16.7898 17.198 17.3838 17.42 18.1638 17.612V14.228H18.0198C17.3478 14.228 16.8078 14.372 16.3998 14.66C15.9918 14.936 15.7878 15.326 15.7878 15.83ZM18.9198 24.038C19.6518 24.026 20.2338 23.864 20.6658 23.552C21.1098 23.228 21.3318 22.76 21.3318 22.148C21.3318 21.608 21.1278 21.2 20.7198 20.924C20.3118 20.648 19.7118 20.408 18.9198 20.204V24.038Z" fill="white"/>
</svg>
