<svg width="41" height="40" viewBox="0 0 41 40" fill="none" xmlns="http://www.w3.org/2000/svg">
<path fill-rule="evenodd" clip-rule="evenodd" d="M20.1337 40C31.1794 40 40.1338 31.0457 40.1338 20C40.1338 8.95428 31.1794 0 20.1337 0C9.08806 0 0.133789 8.95428 0.133789 20C0.133789 31.0457 9.08806 40 20.1337 40ZM30.1337 16.3476H24.1555L28.3537 10H25.1799L20.1253 17.6574L15.0876 10H11.9138L16.1119 16.3476H10.1337V18.7993H30.1337V16.3476ZM24.038 23.5684L28.2865 30H25.1127L20.1253 22.4433L15.138 30H11.9809L16.2295 23.5852H10.1337V21.1503H30.1337V23.5684H24.038Z" fill="#5546FF"/>
</svg>
