<svg width="3448" height="1440" viewBox="0 0 3448 1440" fill="none" xmlns="http://www.w3.org/2000/svg">
<path d="M1247.95 599.67C1249.06 650.868 1289.5 687.226 1352.19 687.226C1408.21 687.226 1448.28 654.207 1448.28 608.203C1448.65 557.005 1406.73 543.278 1363.69 535.487C1322.89 528.438 1296.17 522.873 1296.17 496.161C1296.17 471.675 1316.58 459.061 1345.89 459.061C1377.05 459.061 1398.94 476.869 1401.9 503.21H1443.82C1441.6 456.464 1402.65 423.074 1345.89 423.074C1291.35 423.074 1253.51 454.238 1253.51 499.129C1253.51 550.698 1294.32 564.425 1337.35 571.845C1378.53 579.265 1405.61 585.201 1405.61 612.655C1405.61 637.512 1383.35 651.239 1352.56 651.239C1316.21 651.239 1292.09 630.834 1289.87 600.412L1247.95 599.67Z" fill="black"/>
<path d="M1490.28 633.431C1490.28 667.934 1505.86 685 1542.22 685H1580.8V649.755H1550.38C1535.91 649.755 1530.72 644.19 1530.72 629.35V530.293H1576.35V495.048H1530.72V441.995H1490.28V495.048H1457.27V530.293H1490.28V633.431Z" fill="black"/>
<path d="M1744.11 495.048L1739.29 522.873C1727.05 505.436 1707.02 492.822 1677.34 492.822C1625.77 492.822 1587.56 531.406 1587.56 590.024C1587.56 650.868 1625.77 687.226 1677.34 687.226C1707.02 687.226 1727.05 673.128 1739.29 656.062L1743.74 685H1778.99V495.048H1744.11ZM1684.02 653.465C1650.63 653.465 1628.74 627.495 1628.74 590.024C1628.74 552.924 1650.63 526.954 1684.02 526.954C1717.4 526.954 1739.29 553.295 1739.29 590.766C1739.29 627.495 1717.4 653.465 1684.02 653.465Z" fill="black"/>
<path d="M1989.53 616.736H1948.72C1943.9 638.996 1926.84 653.094 1901.98 653.094C1869.7 653.094 1848.56 627.124 1848.56 589.653C1848.56 552.553 1869.7 526.954 1901.98 526.954C1926.09 526.954 1943.16 541.052 1948.35 562.57H1989.53C1982.11 519.905 1950.95 492.822 1903.09 492.822C1845.22 492.822 1807.38 531.406 1807.38 589.653C1807.38 648.271 1844.85 687.226 1901.98 687.226C1950.58 687.226 1982.11 660.143 1989.53 616.736Z" fill="black"/>
<path d="M2017.94 425.3V685H2058.01V636.399L2091.77 600.783L2148.16 685H2195.64L2120.33 571.474L2191.19 495.048H2144.82L2058.01 587.798V425.3H2017.94Z" fill="black"/>
<path d="M2199.57 622.301C2200.68 663.482 2235.18 687.226 2285.63 687.226C2331.27 687.226 2365.4 664.224 2365.4 627.866C2365.4 585.572 2330.15 575.926 2287.49 571.103C2260.41 567.764 2242.23 566.28 2242.23 548.472C2242.23 533.261 2257.81 523.615 2281.18 523.615C2304.55 523.615 2321.25 536.229 2323.1 553.295H2362.06C2359.46 514.34 2326.81 492.822 2280.44 492.822C2235.55 492.451 2203.28 515.824 2203.28 551.811C2203.28 591.137 2237.41 600.041 2280.07 605.235C2309.01 608.945 2326.07 610.8 2326.07 630.834C2326.07 646.416 2309.38 656.062 2285.26 656.062C2257.81 656.062 2239.63 641.964 2238.15 622.301H2199.57Z" fill="black"/>
<ellipse cx="719.979" cy="720" rx="359.979" ry="360" fill="black"/>
<path d="M866.721 900L790.252 784.232H899.968V740.705H539.99V784.534H649.706L573.237 900H630.06L719.828 763.98L809.596 900H866.721Z" fill="white"/>
<path d="M792.368 654.257H899.968V698.388H539.99V654.257H647.59L572.028 540H629.153L719.828 677.834L810.805 540H867.93L792.368 654.257Z" fill="white"/>
<path d="M1251.95 765.936V1025.64H1294.61V915.82H1396.26V879.091H1294.61V803.778H1417.78V765.936H1251.95Z" fill="black"/>
<path d="M1518.7 1027.86C1576.57 1027.86 1615.52 988.907 1615.52 930.66C1615.52 872.784 1576.57 833.458 1518.7 833.458C1460.83 833.458 1421.87 872.784 1421.87 930.66C1421.87 988.907 1460.83 1027.86 1518.7 1027.86ZM1518.7 993.73C1484.94 993.73 1463.05 967.389 1463.05 930.66C1463.05 893.931 1484.94 867.59 1518.7 867.59C1552.46 867.59 1574.72 893.931 1574.72 930.66C1574.72 967.389 1552.46 993.73 1518.7 993.73Z" fill="black"/>
<path d="M1774.24 835.684V929.918C1774.24 969.244 1755.7 992.988 1725.28 992.988C1695.97 992.988 1681.13 973.325 1681.13 936.225V835.684H1641.06V940.306C1641.06 1005.97 1675.56 1027.86 1716 1027.86C1745.31 1027.86 1762.74 1015.99 1774.62 1001.52L1779.07 1025.64H1814.31V835.684H1774.24Z" fill="black"/>
<path d="M1950.25 833.458C1919.46 833.458 1901.28 845.701 1889.41 860.541L1884.96 835.684H1850.08V1025.64H1890.15V929.918C1890.15 891.334 1909.07 867.961 1940.97 867.961C1971.02 867.961 1986.23 887.253 1986.23 923.24V1025.64H2026.67V921.014C2026.67 855.347 1991.06 833.458 1950.25 833.458Z" fill="black"/>
<path d="M2203.71 765.936V862.025C2191.46 845.33 2171.06 833.458 2142.12 833.458C2090.56 833.458 2052.35 872.042 2052.35 930.66C2052.35 991.504 2090.56 1027.86 2142.12 1027.86C2172.17 1027.86 2191.84 1013.76 2204.08 997.069L2208.9 1025.64H2243.77V765.936H2203.71ZM2148.8 994.101C2115.41 994.101 2093.53 968.131 2093.53 930.66C2093.53 893.56 2115.41 867.59 2148.8 867.59C2182.19 867.59 2204.08 893.56 2204.08 931.402C2204.08 968.131 2182.19 994.101 2148.8 994.101Z" fill="black"/>
<path d="M2428.72 835.684L2423.9 863.509C2411.65 846.072 2391.62 833.458 2361.94 833.458C2310.38 833.458 2272.17 872.042 2272.17 930.66C2272.17 991.504 2310.38 1027.86 2361.94 1027.86C2391.62 1027.86 2411.65 1013.76 2423.9 996.698L2428.35 1025.64H2463.59V835.684H2428.72ZM2368.62 994.101C2335.23 994.101 2313.35 968.131 2313.35 930.66C2313.35 893.56 2335.23 867.59 2368.62 867.59C2402.01 867.59 2423.9 893.931 2423.9 931.402C2423.9 968.131 2402.01 994.101 2368.62 994.101Z" fill="black"/>
<path d="M2512.36 974.067C2512.36 1008.57 2527.94 1025.64 2564.3 1025.64H2602.88V990.391H2572.46C2557.99 990.391 2552.8 984.826 2552.8 969.986V870.929H2598.43V835.684H2552.8V782.631H2512.36V835.684H2479.35V870.929H2512.36V974.067Z" fill="black"/>
<path d="M2640.71 760C2626.98 760 2616.22 770.017 2616.22 784.115C2616.22 798.213 2626.98 808.23 2640.71 808.23C2654.43 808.23 2665.19 798.213 2665.19 784.115C2665.19 770.017 2654.43 760 2640.71 760ZM2620.68 835.684V1025.64H2660.74V835.684H2620.68Z" fill="black"/>
<path d="M2786.08 1027.86C2843.95 1027.86 2882.91 988.907 2882.91 930.66C2882.91 872.784 2843.95 833.458 2786.08 833.458C2728.21 833.458 2689.26 872.784 2689.26 930.66C2689.26 988.907 2728.21 1027.86 2786.08 1027.86ZM2786.08 993.73C2752.32 993.73 2730.44 967.389 2730.44 930.66C2730.44 893.931 2752.32 867.59 2786.08 867.59C2819.84 867.59 2842.1 893.931 2842.1 930.66C2842.1 967.389 2819.84 993.73 2786.08 993.73Z" fill="black"/>
<path d="M3011.58 833.458C2980.79 833.458 2962.61 845.701 2950.74 860.541L2946.29 835.684H2911.41V1025.64H2951.48V929.918C2951.48 891.334 2970.4 867.961 3002.3 867.961C3032.35 867.961 3047.56 887.253 3047.56 923.24V1025.64H3088V921.014C3088 855.347 3052.39 833.458 3011.58 833.458Z" fill="black"/>
</svg>
